<svg width="102" height="121" viewBox="0 0 102 121" fill="none" xmlns="http://www.w3.org/2000/svg">
<rect x="0.768188" y="20.7143" width="100.54" height="100.286" rx="50" fill="#1E1E1E"/>
<circle cx="51.2498" cy="70.8572" r="43.4571" fill="#0A0A0A"/>
<circle cx="50.911" cy="70.8572" r="20.0571" fill="#1E1E1E"/>
<circle cx="51.2497" cy="70.8571" r="3.34286" fill="white" fill-opacity="0.5"/>
<g filter="url(#filter0_d_205_187)">
<path d="M86.3497 4V37.4286L76.3212 64.1714" stroke="#1E1E1E" stroke-width="8" stroke-linecap="round"/>
</g>
<path d="M42.6336 97.8912C42.3405 98.8485 41.3244 99.3922 40.3864 99.042C36.4988 97.5903 32.947 95.3474 29.9595 92.4484C26.9719 89.5493 24.6233 86.0666 23.0554 82.2243C22.6771 81.2973 23.19 80.2654 24.1381 79.9436V79.9436C25.0862 79.6218 26.1098 80.1325 26.4957 81.0564C27.874 84.3557 29.9093 87.3476 32.4844 89.8464C35.0595 92.3451 38.1112 94.2896 41.4504 95.568C42.3855 95.926 42.9267 96.9338 42.6336 97.8912V97.8912Z" fill="white" fill-opacity="0.5"/>
<defs>
<filter id="filter0_d_205_187" x="71.3201" y="0" width="20.0297" height="73.1725" filterUnits="userSpaceOnUse" color-interpolation-filters="sRGB">
<feFlood flood-opacity="0" result="BackgroundImageFix"/>
<feColorMatrix in="SourceAlpha" type="matrix" values="0 0 0 0 0 0 0 0 0 0 0 0 0 0 0 0 0 0 127 0" result="hardAlpha"/>
<feOffset dy="4"/>
<feGaussianBlur stdDeviation="0.5"/>
<feComposite in2="hardAlpha" operator="out"/>
<feColorMatrix type="matrix" values="0 0 0 0 0 0 0 0 0 0 0 0 0 0 0 0 0 0 1 0"/>
<feBlend mode="normal" in2="BackgroundImageFix" result="effect1_dropShadow_205_187"/>
<feBlend mode="normal" in="SourceGraphic" in2="effect1_dropShadow_205_187" result="shape"/>
</filter>
</defs>
</svg>
