<svg width="39" height="41" viewBox="0 0 39 41" fill="none" xmlns="http://www.w3.org/2000/svg">
<g filter="url(#filter0_d_122_15)">
<rect x="4" y="7" width="30.0759" height="30" rx="15" fill="#1E1E1E"/>
</g>
<circle cx="19.1013" cy="22" r="13" fill="#0A0A0A"/>
<circle cx="19" cy="22" r="6" fill="#1E1E1E"/>
<circle cx="19.1013" cy="22" r="1" fill="white" fill-opacity="0.5"/>
<g filter="url(#filter1_d_122_15)">
<path d="M29.6013 2V12L26.6013 20" stroke="#1E1E1E" stroke-width="3" stroke-linecap="round"/>
</g>
<path d="M16.5238 30.0871C16.4362 30.3735 16.1322 30.5361 15.8516 30.4314C14.6886 29.9971 13.6261 29.3262 12.7324 28.4589C11.8387 27.5917 11.1361 26.5498 10.6671 25.4004C10.554 25.1231 10.7074 24.8144 10.991 24.7182C11.2746 24.6219 11.5808 24.7747 11.6963 25.0511C12.1086 26.038 12.7174 26.933 13.4878 27.6805C14.2581 28.428 15.171 29.0097 16.1699 29.3921C16.4496 29.4992 16.6115 29.8007 16.5238 30.0871Z" fill="white" fill-opacity="0.5"/>
<defs>
<filter id="filter0_d_122_15" x="0" y="3" width="38.0759" height="38" filterUnits="userSpaceOnUse" color-interpolation-filters="sRGB">
<feFlood flood-opacity="0" result="BackgroundImageFix"/>
<feColorMatrix in="SourceAlpha" type="matrix" values="0 0 0 0 0 0 0 0 0 0 0 0 0 0 0 0 0 0 127 0" result="hardAlpha"/>
<feOffset/>
<feGaussianBlur stdDeviation="2"/>
<feComposite in2="hardAlpha" operator="out"/>
<feColorMatrix type="matrix" values="0 0 0 0 1 0 0 0 0 1 0 0 0 0 1 0 0 0 1 0"/>
<feBlend mode="normal" in2="BackgroundImageFix" result="effect1_dropShadow_122_15"/>
<feBlend mode="normal" in="SourceGraphic" in2="effect1_dropShadow_122_15" result="shape"/>
</filter>
<filter id="filter1_d_122_15" x="24.101" y="0.5" width="8.00037" height="26.0004" filterUnits="userSpaceOnUse" color-interpolation-filters="sRGB">
<feFlood flood-opacity="0" result="BackgroundImageFix"/>
<feColorMatrix in="SourceAlpha" type="matrix" values="0 0 0 0 0 0 0 0 0 0 0 0 0 0 0 0 0 0 127 0" result="hardAlpha"/>
<feOffset dy="4"/>
<feGaussianBlur stdDeviation="0.5"/>
<feComposite in2="hardAlpha" operator="out"/>
<feColorMatrix type="matrix" values="0 0 0 0 0 0 0 0 0 0 0 0 0 0 0 0 0 0 1 0"/>
<feBlend mode="normal" in2="BackgroundImageFix" result="effect1_dropShadow_122_15"/>
<feBlend mode="normal" in="SourceGraphic" in2="effect1_dropShadow_122_15" result="shape"/>
</filter>
</defs>
</svg>
