<svg width="464" height="109" viewBox="0 0 464 109" fill="none" xmlns="http://www.w3.org/2000/svg">
<path d="M208.761 3.49195C208.65 2.11568 207.445 1.08976 206.068 1.2005C204.692 1.31123 203.666 2.51668 203.777 3.89294L203.977 6.38489C204.088 7.76115 205.294 8.78707 206.67 8.67634C208.046 8.56561 209.072 7.36016 208.961 5.98389L208.761 3.49195Z" fill="white" fill-opacity="0.5"/>
<path d="M182.835 6.41706C182.614 5.05411 181.33 4.12817 179.967 4.34892C178.604 4.56967 177.678 5.85351 177.899 7.21647L178.299 9.68431C178.52 11.0473 179.803 11.9732 181.166 11.7524C182.529 11.5317 183.455 10.2479 183.235 8.8849L182.835 6.41706Z" fill="white" fill-opacity="0.5"/>
<path d="M157.282 11.4278C156.952 10.087 155.598 9.26699 154.257 9.59633C152.917 9.92568 152.097 11.2796 152.426 12.6205L153.022 15.0483C153.352 16.3892 154.706 17.2092 156.046 16.8798C157.387 16.5505 158.207 15.1965 157.878 13.8557L157.282 11.4278Z" fill="white" fill-opacity="0.5"/>
<path d="M132.318 18.3722C131.882 17.0621 130.466 16.3533 129.156 16.7891C127.846 17.2249 127.137 18.6403 127.573 19.9504L128.362 22.3226C128.798 23.6327 130.214 24.3415 131.524 23.9057C132.834 23.4699 133.543 22.0545 133.107 20.7444L132.318 18.3722Z" fill="white" fill-opacity="0.5"/>
<path d="M107.662 27.54C107.123 26.2691 105.655 25.6761 104.384 26.2156C103.113 26.7551 102.52 28.2227 103.06 29.4937L106.967 38.6987C107.507 39.9697 108.974 40.5627 110.245 40.0232C111.516 39.4837 112.109 38.016 111.57 36.7451L107.662 27.54Z" fill="white"/>
<path d="M84.3526 38.399C83.7129 37.1754 82.2024 36.7021 80.9788 37.3418C79.7552 37.9814 79.2819 39.4919 79.9215 40.7155L81.0798 42.931C81.7195 44.1546 83.2299 44.628 84.4535 43.9883C85.6771 43.3486 86.1505 41.8381 85.5108 40.6145L84.3526 38.399Z" fill="white" fill-opacity="0.5"/>
<path d="M61.5989 51.1155C60.8632 49.9471 59.3196 49.5964 58.1512 50.3322C56.9829 51.0679 56.6322 52.6115 57.3679 53.7799L58.7001 55.8953C59.4359 57.0637 60.9795 57.4144 62.1478 56.6786C63.3162 55.9429 63.6668 54.3993 62.9311 53.231L61.5989 51.1155Z" fill="white" fill-opacity="0.5"/>
<path d="M39.2682 66.0018C38.4411 64.8962 36.8744 64.6705 35.7688 65.4976C34.6632 66.3246 34.4374 67.8914 35.2645 68.9969L36.7621 70.9988C37.5892 72.1044 39.1559 72.3301 40.2615 71.503C41.367 70.676 41.5928 69.1092 40.7657 68.0037L39.2682 66.0018Z" fill="white" fill-opacity="0.5"/>
<path d="M19.9567 81.8753C19.0437 80.8396 17.4639 80.7402 16.4282 81.6533C15.3925 82.5664 15.2931 84.1461 16.2062 85.1818L17.8595 87.0571C18.7725 88.0928 20.3523 88.1922 21.388 87.2791C22.4237 86.366 22.5231 84.7862 21.61 83.7506L19.9567 81.8753Z" fill="white" fill-opacity="0.5"/>
<path d="M5.27164 95.7366C4.27844 94.7775 2.69577 94.8051 1.73665 95.7983C0.777524 96.7915 0.805149 98.3742 1.79835 99.3333L8.99175 106.28C9.98495 107.239 11.5676 107.211 12.5267 106.218C13.4859 105.225 13.4582 103.642 12.465 102.683L5.27164 95.7366Z" fill="white"/>
<path d="M5.27164 95.7366C4.27844 94.7775 2.69577 94.8051 1.73665 95.7983C0.777524 96.7915 0.805149 98.3742 1.79835 99.3333L8.99175 106.28C9.98495 107.239 11.5676 107.211 12.5267 106.218C13.4859 105.225 13.4582 103.642 12.465 102.683L5.27164 95.7366Z" fill="white"/>
<rect x="229" width="5" height="15" rx="2.5" fill="white"/>
<path d="M254.502 3.49195C254.613 2.11568 255.819 1.08976 257.195 1.2005C258.571 1.31123 259.597 2.51668 259.486 3.89294L259.286 6.38489C259.175 7.76115 257.97 8.78707 256.593 8.67634C255.217 8.56561 254.191 7.36016 254.302 5.98389L254.502 3.49195Z" fill="white" fill-opacity="0.5"/>
<path d="M280.428 6.41706C280.649 5.05411 281.933 4.12817 283.296 4.34892C284.659 4.56967 285.585 5.85351 285.364 7.21647L284.964 9.68431C284.744 11.0473 283.46 11.9732 282.097 11.7524C280.734 11.5317 279.808 10.2479 280.029 8.8849L280.428 6.41706Z" fill="white" fill-opacity="0.5"/>
<path d="M305.982 11.4278C306.311 10.087 307.665 9.26699 309.006 9.59633C310.347 9.92568 311.167 11.2796 310.837 12.6205L310.241 15.0483C309.912 16.3892 308.558 17.2092 307.217 16.8798C305.876 16.5505 305.056 15.1965 305.385 13.8557L305.982 11.4278Z" fill="white" fill-opacity="0.5"/>
<path d="M330.946 18.3722C331.381 17.0621 332.797 16.3533 334.107 16.7891C335.417 17.2249 336.126 18.6403 335.69 19.9504L334.901 22.3226C334.465 23.6327 333.05 24.3415 331.74 23.9057C330.429 23.4699 329.721 22.0545 330.156 20.7444L330.946 18.3722Z" fill="white" fill-opacity="0.5"/>
<path d="M355.601 27.54C356.14 26.2691 357.608 25.6761 358.879 26.2156C360.15 26.7551 360.743 28.2227 360.203 29.4937L356.296 38.6987C355.757 39.9697 354.289 40.5627 353.018 40.0232C351.747 39.4837 351.154 38.016 351.694 36.7451L355.601 27.54Z" fill="white"/>
<path d="M378.911 38.399C379.55 37.1754 381.061 36.7021 382.284 37.3418C383.508 37.9814 383.981 39.4919 383.342 40.7155L382.184 42.931C381.544 44.1546 380.033 44.628 378.81 43.9883C377.586 43.3486 377.113 41.8381 377.752 40.6145L378.911 38.399Z" fill="white" fill-opacity="0.5"/>
<path d="M401.664 51.1155C402.4 49.9471 403.944 49.5964 405.112 50.3322C406.28 51.0679 406.631 52.6115 405.895 53.7799L404.563 55.8953C403.827 57.0637 402.284 57.4144 401.116 56.6786C399.947 55.9429 399.596 54.3993 400.332 53.231L401.664 51.1155Z" fill="white" fill-opacity="0.5"/>
<path d="M423.995 66.0018C424.822 64.8962 426.389 64.6705 427.495 65.4976C428.6 66.3246 428.826 67.8914 427.999 68.9969L426.501 70.9988C425.674 72.1044 424.107 72.3301 423.002 71.503C421.896 70.676 421.67 69.1092 422.498 68.0037L423.995 66.0018Z" fill="white" fill-opacity="0.5"/>
<path d="M443.307 81.8753C444.22 80.8396 445.799 80.7402 446.835 81.6533C447.871 82.5664 447.97 84.1461 447.057 85.1818L445.404 87.0571C444.491 88.0928 442.911 88.1922 441.875 87.2791C440.84 86.366 440.74 84.7862 441.653 83.7506L443.307 81.8753Z" fill="white" fill-opacity="0.5"/>
<path d="M457.992 95.7366C458.985 94.7775 460.568 94.8051 461.527 95.7983C462.486 96.7915 462.458 98.3742 461.465 99.3333L454.272 106.28C453.278 107.239 451.696 107.211 450.737 106.218C449.777 105.225 449.805 103.642 450.798 102.683L457.992 95.7366Z" fill="white"/>
<path d="M457.992 95.7366C458.985 94.7775 460.568 94.8051 461.527 95.7983C462.486 96.7915 462.458 98.3742 461.465 99.3333L454.272 106.28C453.278 107.239 451.696 107.211 450.737 106.218C449.777 105.225 449.805 103.642 450.798 102.683L457.992 95.7366Z" fill="white"/>
</svg>
