<svg width="23" height="23" viewBox="0 0 23 23" fill="none" xmlns="http://www.w3.org/2000/svg">
<path d="M8.86461 21.0833L8.48127 18.0167C8.27364 17.9368 8.07798 17.841 7.8943 17.7292C7.71061 17.6174 7.53093 17.4976 7.35523 17.3698L4.50419 18.5677L1.86877 14.0156L4.33648 12.1469C4.32051 12.0351 4.31252 11.9273 4.31252 11.8234V11.1766C4.31252 11.0727 4.32051 10.9649 4.33648 10.8531L1.86877 8.98438L4.50419 4.4323L7.35523 5.63021C7.53093 5.50244 7.71461 5.38264 7.90627 5.27084C8.09794 5.15903 8.28961 5.0632 8.48127 4.98334L8.86461 1.91667H14.1354L14.5188 4.98334C14.7264 5.0632 14.9221 5.15903 15.1058 5.27084C15.2894 5.38264 15.4691 5.50244 15.6448 5.63021L18.4959 4.4323L21.1313 8.98438L18.6636 10.8531C18.6795 10.9649 18.6875 11.0727 18.6875 11.1766V11.8234C18.6875 11.9273 18.6716 12.0351 18.6396 12.1469L21.1073 14.0156L18.4719 18.5677L15.6448 17.3698C15.4691 17.4976 15.2854 17.6174 15.0938 17.7292C14.9021 17.841 14.7104 17.9368 14.5188 18.0167L14.1354 21.0833H8.86461ZM11.5479 14.8542C12.4743 14.8542 13.265 14.5267 13.9198 13.8719C14.5747 13.217 14.9021 12.4264 14.9021 11.5C14.9021 10.5736 14.5747 9.78299 13.9198 9.12813C13.265 8.47327 12.4743 8.14584 11.5479 8.14584C10.6056 8.14584 9.81096 8.47327 9.16409 9.12813C8.51721 9.78299 8.19377 10.5736 8.19377 11.5C8.19377 12.4264 8.51721 13.217 9.16409 13.8719C9.81096 14.5267 10.6056 14.8542 11.5479 14.8542Z" fill="white"/>
</svg>
